<svg width="375" height="375" viewBox="0 0 375 375" fill="none" xmlns="http://www.w3.org/2000/svg">
<rect width="375" height="375" fill="white"/>
<rect x="45.5" y="9.5" width="284" height="356" rx="16.5" fill="white" stroke="black" stroke-width="9"/>
<mask id="path-3-inside-1" fill="white">
<rect x="169" y="17" width="60" height="32" rx="3"/>
</mask>
<rect x="169" y="17" width="60" height="32" rx="3" fill="white" stroke="black" stroke-width="12" mask="url(#path-3-inside-1)"/>
<mask id="path-4-inside-2" fill="white">
<rect x="247" y="23" width="21" height="21" rx="3"/>
</mask>
<rect x="247" y="23" width="21" height="21" rx="3" fill="white" stroke="black" stroke-width="12" mask="url(#path-4-inside-2)"/>
<mask id="path-5-inside-3" fill="white">
<rect x="271" y="23" width="21" height="21" rx="3"/>
</mask>
<rect x="271" y="23" width="21" height="21" rx="3" fill="white" stroke="black" stroke-width="12" mask="url(#path-5-inside-3)"/>
<mask id="path-6-inside-4" fill="white">
<rect x="295" y="23" width="21" height="21" rx="3"/>
</mask>
<rect x="295" y="23" width="21" height="21" rx="3" fill="white" stroke="black" stroke-width="12" mask="url(#path-6-inside-4)"/>
<circle cx="69" cy="34" r="7.5" fill="white" stroke="black" stroke-width="5"/>
<circle cx="97" cy="34" r="7.5" fill="white" stroke="black" stroke-width="5"/>
<circle cx="188" cy="215" r="102.5" fill="white" stroke="black" stroke-width="9"/>
<circle cx="188" cy="215" r="65.5" fill="white" stroke="black" stroke-width="9"/>
<line x1="41" y1="58.5" x2="329" y2="58.5" stroke="black" stroke-width="9"/>
</svg>
